<mxfile host="65bd71144e">
    <diagram id="CVBdQuv4lTY4pDEF5aGq" name="Page-1">
        <mxGraphModel dx="1752" dy="1931" grid="1" gridSize="10" guides="1" tooltips="1" connect="1" arrows="1" fold="1" page="1" pageScale="1" pageWidth="850" pageHeight="1100" math="0" shadow="0">
            <root>
                <mxCell id="0"/>
                <mxCell id="1" parent="0"/>
                <mxCell id="6" value="Client&lt;div&gt;python&lt;/div&gt;" style="whiteSpace=wrap;html=1;" parent="1" vertex="1">
                    <mxGeometry y="-60" width="120" height="60" as="geometry"/>
                </mxCell>
                <mxCell id="23" value="ClinetWindow" style="swimlane;fontStyle=0;childLayout=stackLayout;horizontal=1;startSize=30;horizontalStack=0;resizeParent=1;resizeParentMax=0;resizeLast=0;collapsible=1;marginBottom=0;whiteSpace=wrap;html=1;" parent="1" vertex="1">
                    <mxGeometry x="140" y="40" width="200" height="220" as="geometry"/>
                </mxCell>
                <mxCell id="24" value="- __session: Session&lt;div&gt;- __session_button: QPushButton&lt;/div&gt;&lt;div&gt;- __temp_button: QPushButton&lt;/div&gt;&lt;div&gt;- __relay_button: QPushButton&lt;/div&gt;&lt;div&gt;&lt;div&gt;- __log: QTextEdit&lt;/div&gt;&lt;/div&gt;" style="text;strokeColor=none;fillColor=none;align=left;verticalAlign=middle;spacingLeft=4;spacingRight=4;overflow=hidden;points=[[0,0.5],[1,0.5]];portConstraint=eastwest;rotatable=0;whiteSpace=wrap;html=1;" parent="23" vertex="1">
                    <mxGeometry y="30" width="200" height="110" as="geometry"/>
                </mxCell>
                <mxCell id="25" value="+ __init__(port: str, baud: int)&lt;div&gt;+ __toggleSession()&lt;/div&gt;&lt;div&gt;+ __getTemperature()&lt;/div&gt;&lt;div&gt;+ __toggleRelay()&lt;/div&gt;&lt;div&gt;+ __clearLog()&lt;/div&gt;" style="text;strokeColor=none;fillColor=none;align=left;verticalAlign=middle;spacingLeft=4;spacingRight=4;overflow=hidden;points=[[0,0.5],[1,0.5]];portConstraint=eastwest;rotatable=0;whiteSpace=wrap;html=1;" parent="23" vertex="1">
                    <mxGeometry y="140" width="200" height="80" as="geometry"/>
                </mxCell>
                <mxCell id="27" value="Session" style="swimlane;fontStyle=0;childLayout=stackLayout;horizontal=1;startSize=30;horizontalStack=0;resizeParent=1;resizeParentMax=0;resizeLast=0;collapsible=1;marginBottom=0;whiteSpace=wrap;html=1;" parent="1" vertex="1">
                    <mxGeometry x="430" y="40" width="240" height="330" as="geometry"/>
                </mxCell>
                <mxCell id="28" value="&lt;span style=&quot;font-weight: normal;&quot;&gt;- __SESSION_ID: bytes&lt;br&gt;- __com: Communication&lt;br&gt;- __hmac: HMAC&lt;br&gt;- __clientRSA: RSA&lt;br&gt;- __serverRSA: RSA&lt;br&gt;- __AES: AES&lt;br&gt;- __RSA_SIZE: int&lt;br&gt;- __EXPONENT: int&lt;br&gt;- __SECRET_KEY: bytes&lt;br&gt;- __TERMINATE: int&lt;/span&gt;" style="text;strokeColor=none;fillColor=none;align=left;verticalAlign=middle;spacingLeft=4;spacingRight=4;overflow=hidden;points=[[0,0.5],[1,0.5]];portConstraint=eastwest;rotatable=0;whiteSpace=wrap;html=1;fontStyle=1" parent="27" vertex="1">
                    <mxGeometry y="30" width="240" height="180" as="geometry"/>
                </mxCell>
                <mxCell id="29" value="+ __init__(port: str, speed: int)-&amp;gt;&amp;nbsp; None&lt;div&gt;&lt;div style=&quot;&quot;&gt;+ is_established() -&amp;gt; bool&amp;nbsp;&amp;nbsp;&lt;/div&gt;&lt;div style=&quot;&quot;&gt;+ establish() -&amp;gt; bool&amp;nbsp;&lt;/div&gt;&lt;div&gt;&lt;div&gt;+ request(req: int, res: bytearray) -&amp;gt; int&amp;nbsp;&amp;nbsp;&lt;/div&gt;&lt;div&gt;+ terminate() -&amp;gt; bool&amp;nbsp;&amp;nbsp;&lt;/div&gt;&lt;div&gt;- __del__()&amp;nbsp;&amp;nbsp;&lt;/div&gt;&lt;/div&gt;&lt;/div&gt;" style="text;strokeColor=none;fillColor=none;align=left;verticalAlign=middle;spacingLeft=4;spacingRight=4;overflow=hidden;points=[[0,0.5],[1,0.5]];portConstraint=eastwest;rotatable=0;whiteSpace=wrap;html=1;" parent="27" vertex="1">
                    <mxGeometry y="210" width="240" height="120" as="geometry"/>
                </mxCell>
                <mxCell id="31" value="Communication" style="swimlane;fontStyle=0;childLayout=stackLayout;horizontal=1;startSize=30;horizontalStack=0;resizeParent=1;resizeParentMax=0;resizeLast=0;collapsible=1;marginBottom=0;whiteSpace=wrap;html=1;" parent="1" vertex="1">
                    <mxGeometry x="760" y="40" width="260" height="250" as="geometry"/>
                </mxCell>
                <mxCell id="32" value="&lt;div&gt;&lt;font color=&quot;#000000&quot;&gt;- __port: str&amp;nbsp;&amp;nbsp;&lt;/font&gt;&lt;/div&gt;&lt;div&gt;&lt;font color=&quot;#000000&quot;&gt;- __speed: int&amp;nbsp;&amp;nbsp;&lt;/font&gt;&lt;/div&gt;&lt;div&gt;&lt;font color=&quot;#000000&quot;&gt;- __con: Serial&lt;/font&gt;&lt;/div&gt;&lt;div&gt;&lt;br&gt;&lt;/div&gt;" style="text;strokeColor=none;fillColor=none;align=left;verticalAlign=middle;spacingLeft=4;spacingRight=4;overflow=hidden;points=[[0,0.5],[1,0.5]];portConstraint=eastwest;rotatable=0;whiteSpace=wrap;html=1;" parent="31" vertex="1">
                    <mxGeometry y="30" width="260" height="100" as="geometry"/>
                </mxCell>
                <mxCell id="33" value="&lt;div&gt;&lt;font color=&quot;#000000&quot;&gt;+ __init__(port: str, speed: int) -&amp;gt; None&amp;nbsp;&amp;nbsp;&lt;/font&gt;&lt;/div&gt;&lt;div&gt;&lt;font color=&quot;#000000&quot;&gt;+ connect() -&amp;gt; bool&amp;nbsp;&amp;nbsp;&lt;/font&gt;&lt;/div&gt;&lt;div&gt;&lt;font color=&quot;#000000&quot;&gt;+ disconnect() -&amp;gt; None&amp;nbsp;&amp;nbsp;&lt;/font&gt;&lt;/div&gt;&lt;div&gt;&lt;font color=&quot;#000000&quot;&gt;+ send(buf: bytes) -&amp;gt; bool&amp;nbsp;&amp;nbsp;&lt;/font&gt;&lt;/div&gt;&lt;div&gt;&lt;font color=&quot;#000000&quot;&gt;+ receive(size: int) -&amp;gt; bytes&amp;nbsp;&amp;nbsp;&lt;/font&gt;&lt;/div&gt;&lt;div&gt;&lt;font color=&quot;#000000&quot;&gt;- del__() -&amp;gt; None&amp;nbsp;&amp;nbsp;&lt;/font&gt;&lt;/div&gt;&lt;div&gt;&lt;br&gt;&lt;/div&gt;" style="text;strokeColor=none;fillColor=none;align=left;verticalAlign=middle;spacingLeft=4;spacingRight=4;overflow=hidden;points=[[0,0.5],[1,0.5]];portConstraint=eastwest;rotatable=0;whiteSpace=wrap;html=1;" parent="31" vertex="1">
                    <mxGeometry y="130" width="260" height="120" as="geometry"/>
                </mxCell>
                <mxCell id="35" value="Server&lt;div&gt;c++&lt;/div&gt;" style="whiteSpace=wrap;html=1;" parent="1" vertex="1">
                    <mxGeometry y="450" width="120" height="60" as="geometry"/>
                </mxCell>
                <mxCell id="36" value="Main" style="swimlane;fontStyle=0;childLayout=stackLayout;horizontal=1;startSize=30;horizontalStack=0;resizeParent=1;resizeParentMax=0;resizeLast=0;collapsible=1;marginBottom=0;whiteSpace=wrap;html=1;" parent="1" vertex="1">
                    <mxGeometry x="150" y="580" width="190" height="200" as="geometry"/>
                </mxCell>
                <mxCell id="37" value="&lt;div&gt;&lt;font color=&quot;#000000&quot;&gt;- RELAY_PIN: int&amp;nbsp;&amp;nbsp;&lt;/font&gt;&lt;/div&gt;&lt;div&gt;&lt;font color=&quot;#000000&quot;&gt;- LED_PIN: int&amp;nbsp;&lt;/font&gt;&lt;/div&gt;" style="text;strokeColor=none;fillColor=none;align=left;verticalAlign=middle;spacingLeft=4;spacingRight=4;overflow=hidden;points=[[0,0.5],[1,0.5]];portConstraint=eastwest;rotatable=0;whiteSpace=wrap;html=1;" parent="36" vertex="1">
                    <mxGeometry y="30" width="190" height="70" as="geometry"/>
                </mxCell>
                <mxCell id="38" value="&lt;div&gt;&lt;font color=&quot;#000000&quot;&gt;+ setup() -&amp;gt; void&amp;nbsp;&amp;nbsp;&lt;/font&gt;&lt;/div&gt;&lt;div&gt;&lt;font color=&quot;#000000&quot;&gt;+ loop() -&amp;gt; void&amp;nbsp;&amp;nbsp;&lt;/font&gt;&lt;/div&gt;&lt;div&gt;&lt;font color=&quot;#000000&quot;&gt;- set_error(error: bool) -&amp;gt; void&amp;nbsp;&amp;nbsp;&lt;/font&gt;&lt;/div&gt;&lt;div&gt;&lt;br&gt;&lt;/div&gt;" style="text;strokeColor=none;fillColor=none;align=left;verticalAlign=middle;spacingLeft=4;spacingRight=4;overflow=hidden;points=[[0,0.5],[1,0.5]];portConstraint=eastwest;rotatable=0;whiteSpace=wrap;html=1;" parent="36" vertex="1">
                    <mxGeometry y="100" width="190" height="100" as="geometry"/>
                </mxCell>
                <mxCell id="40" value="Session" style="swimlane;fontStyle=0;childLayout=stackLayout;horizontal=1;startSize=30;horizontalStack=0;resizeParent=1;resizeParentMax=0;resizeLast=0;collapsible=1;marginBottom=0;whiteSpace=wrap;html=1;" parent="1" vertex="1">
                    <mxGeometry x="425" y="580" width="280" height="310" as="geometry"/>
                </mxCell>
                <mxCell id="41" value="&lt;div&gt;&lt;font color=&quot;#000000&quot;&gt;- session_id: uint64_t&amp;nbsp;&amp;nbsp;&lt;/font&gt;&lt;/div&gt;&lt;div&gt;&lt;font color=&quot;#000000&quot;&gt;- accessed: uint64_t&amp;nbsp;&amp;nbsp;&lt;/font&gt;&lt;/div&gt;&lt;div&gt;&lt;font color=&quot;#000000&quot;&gt;- aes_key: uint8_t[]&amp;nbsp;&amp;nbsp;&lt;/font&gt;&lt;/div&gt;&lt;div&gt;&lt;font color=&quot;#000000&quot;&gt;- enc_iv: uint8_t[]&amp;nbsp;&amp;nbsp;&lt;/font&gt;&lt;/div&gt;&lt;div&gt;&lt;font color=&quot;#000000&quot;&gt;- dec_iv: uint8_t[]&amp;nbsp;&amp;nbsp;&lt;/font&gt;&lt;/div&gt;" style="text;strokeColor=none;fillColor=none;align=left;verticalAlign=middle;spacingLeft=4;spacingRight=4;overflow=hidden;points=[[0,0.5],[1,0.5]];portConstraint=eastwest;rotatable=0;whiteSpace=wrap;html=1;" parent="40" vertex="1">
                    <mxGeometry y="30" width="280" height="100" as="geometry"/>
                </mxCell>
                <mxCell id="42" value="&lt;div&gt;&lt;font color=&quot;#000000&quot;&gt;+ session_init() -&amp;gt; bool&amp;nbsp;&amp;nbsp;&lt;/font&gt;&lt;/div&gt;&lt;div&gt;&lt;font color=&quot;#000000&quot;&gt;+ session_request() -&amp;gt; int&amp;nbsp;&amp;nbsp;&lt;/font&gt;&lt;/div&gt;&lt;div&gt;&lt;font color=&quot;#000000&quot;&gt;+ session_establish() -&amp;gt; int&amp;nbsp;&amp;nbsp;&lt;/font&gt;&lt;/div&gt;&lt;div&gt;&lt;font color=&quot;#000000&quot;&gt;+ session_close() -&amp;gt; int&amp;nbsp;&amp;nbsp;&lt;/font&gt;&lt;/div&gt;&lt;div&gt;&lt;font color=&quot;#000000&quot;&gt;+ session_send_error() -&amp;gt; int&amp;nbsp;&amp;nbsp;&lt;/font&gt;&lt;/div&gt;&lt;div&gt;&lt;font color=&quot;#000000&quot;&gt;+ session_send_temperature(temp: float) -&amp;gt; int&amp;nbsp;&amp;nbsp;&lt;/font&gt;&lt;/div&gt;&lt;div&gt;&lt;font color=&quot;#000000&quot;&gt;+ session_send_relay_state(state: uint8_t) -&amp;gt; int&amp;nbsp;&amp;nbsp;&lt;/font&gt;&lt;/div&gt;&lt;div&gt;&lt;br&gt;&lt;/div&gt;" style="text;strokeColor=none;fillColor=none;align=left;verticalAlign=middle;spacingLeft=4;spacingRight=4;overflow=hidden;points=[[0,0.5],[1,0.5]];portConstraint=eastwest;rotatable=0;whiteSpace=wrap;html=1;" parent="40" vertex="1">
                    <mxGeometry y="130" width="280" height="180" as="geometry"/>
                </mxCell>
                <mxCell id="44" value="Communication" style="swimlane;fontStyle=0;childLayout=stackLayout;horizontal=1;startSize=30;horizontalStack=0;resizeParent=1;resizeParentMax=0;resizeLast=0;collapsible=1;marginBottom=0;whiteSpace=wrap;html=1;" parent="1" vertex="1">
                    <mxGeometry x="760" y="580" width="360" height="150" as="geometry"/>
                </mxCell>
                <mxCell id="45" value="&lt;div&gt;&lt;font color=&quot;#000000&quot;&gt;+ communication_init() -&amp;gt; bool&amp;nbsp;&amp;nbsp;&lt;/font&gt;&lt;/div&gt;&lt;div&gt;&lt;font color=&quot;#000000&quot;&gt;+ communication_write(data: const uint8_t*, len: size_t) -&amp;gt; bool&amp;nbsp;&amp;nbsp;&lt;/font&gt;&lt;/div&gt;&lt;div&gt;&lt;font color=&quot;#000000&quot;&gt;+ communication_read(buf: uint8_t*, blen: size_t) -&amp;gt; size_t&amp;nbsp;&amp;nbsp;&lt;/font&gt;&lt;/div&gt;&lt;div&gt;&lt;br&gt;&lt;/div&gt;" style="text;strokeColor=none;fillColor=none;align=left;verticalAlign=middle;spacingLeft=4;spacingRight=4;overflow=hidden;points=[[0,0.5],[1,0.5]];portConstraint=eastwest;rotatable=0;whiteSpace=wrap;html=1;" parent="44" vertex="1">
                    <mxGeometry y="30" width="360" height="120" as="geometry"/>
                </mxCell>
                <mxCell id="48" value="" style="endArrow=classic;startArrow=classic;html=1;entryX=0.006;entryY=0.417;entryDx=0;entryDy=0;entryPerimeter=0;" parent="1" target="45" edge="1">
                    <mxGeometry width="50" height="50" relative="1" as="geometry">
                        <mxPoint x="705" y="660" as="sourcePoint"/>
                        <mxPoint x="755" y="610" as="targetPoint"/>
                    </mxGeometry>
                </mxCell>
                <mxCell id="49" value="" style="endArrow=classic;startArrow=classic;html=1;entryX=0;entryY=0.5;entryDx=0;entryDy=0;" parent="1" target="41" edge="1">
                    <mxGeometry width="50" height="50" relative="1" as="geometry">
                        <mxPoint x="340" y="660" as="sourcePoint"/>
                        <mxPoint x="390" y="610" as="targetPoint"/>
                    </mxGeometry>
                </mxCell>
                <mxCell id="50" value="" style="endArrow=classic;startArrow=classic;html=1;entryX=0.006;entryY=0.891;entryDx=0;entryDy=0;entryPerimeter=0;" parent="1" target="32" edge="1">
                    <mxGeometry width="50" height="50" relative="1" as="geometry">
                        <mxPoint x="670" y="160" as="sourcePoint"/>
                        <mxPoint x="720" y="110" as="targetPoint"/>
                    </mxGeometry>
                </mxCell>
                <mxCell id="52" value="" style="endArrow=classic;startArrow=classic;html=1;entryX=0;entryY=0.5;entryDx=0;entryDy=0;" parent="1" target="28" edge="1">
                    <mxGeometry width="50" height="50" relative="1" as="geometry">
                        <mxPoint x="340" y="160" as="sourcePoint"/>
                        <mxPoint x="390" y="110" as="targetPoint"/>
                    </mxGeometry>
                </mxCell>
                <mxCell id="59" value="Serial communication" style="endArrow=open;endSize=12;dashed=1;html=1;entryX=0.377;entryY=0.002;entryDx=0;entryDy=0;entryPerimeter=0;exitX=0.526;exitY=1.037;exitDx=0;exitDy=0;exitPerimeter=0;" parent="1" source="33" target="44" edge="1">
                    <mxGeometry width="160" relative="1" as="geometry">
                        <mxPoint x="610" y="450" as="sourcePoint"/>
                        <mxPoint x="770" y="450" as="targetPoint"/>
                    </mxGeometry>
                </mxCell>
            </root>
        </mxGraphModel>
    </diagram>
</mxfile>